<mxfile host="app.diagrams.net" agent="Mozilla/5.0 (Windows NT 10.0; Win64; x64) AppleWebKit/537.36 (KHTML, like Gecko) Chrome/134.0.0.0 Safari/537.36 Edg/134.0.0.0" version="26.2.2">
  <diagram id="C5RBs43oDa-KdzZeNtuy" name="Page-1">
    <mxGraphModel dx="647" dy="833" grid="1" gridSize="10" guides="1" tooltips="1" connect="1" arrows="1" fold="1" page="1" pageScale="1" pageWidth="827" pageHeight="1169" math="0" shadow="0">
      <root>
        <mxCell id="WIyWlLk6GJQsqaUBKTNV-0" />
        <mxCell id="WIyWlLk6GJQsqaUBKTNV-1" parent="WIyWlLk6GJQsqaUBKTNV-0" />
        <mxCell id="HTXJHpEzkk7YD3VBxUTw-1" value="EditorManager Loop" style="swimlane;whiteSpace=wrap;html=1;labelBackgroundColor=none;" vertex="1" parent="WIyWlLk6GJQsqaUBKTNV-1">
          <mxGeometry x="120" y="40" width="440" height="580" as="geometry" />
        </mxCell>
        <mxCell id="HTXJHpEzkk7YD3VBxUTw-29" value="&lt;b&gt;OnDrawGui&lt;/b&gt;" style="rounded=1;whiteSpace=wrap;html=1;labelBackgroundColor=none;" vertex="1" parent="HTXJHpEzkk7YD3VBxUTw-1">
          <mxGeometry x="40" y="280" width="120" height="40" as="geometry" />
        </mxCell>
        <mxCell id="HTXJHpEzkk7YD3VBxUTw-30" value="OnDrawGui" style="swimlane;whiteSpace=wrap;html=1;" vertex="1" parent="HTXJHpEzkk7YD3VBxUTw-1">
          <mxGeometry x="220" y="40" width="200" height="520" as="geometry" />
        </mxCell>
        <mxCell id="HTXJHpEzkk7YD3VBxUTw-15" value="" style="edgeStyle=orthogonalEdgeStyle;rounded=0;orthogonalLoop=1;jettySize=auto;html=1;" edge="1" parent="HTXJHpEzkk7YD3VBxUTw-30" source="HTXJHpEzkk7YD3VBxUTw-3" target="HTXJHpEzkk7YD3VBxUTw-12">
          <mxGeometry relative="1" as="geometry" />
        </mxCell>
        <mxCell id="HTXJHpEzkk7YD3VBxUTw-18" style="edgeStyle=orthogonalEdgeStyle;rounded=0;orthogonalLoop=1;jettySize=auto;html=1;entryX=0.5;entryY=0;entryDx=0;entryDy=0;" edge="1" parent="HTXJHpEzkk7YD3VBxUTw-30" source="HTXJHpEzkk7YD3VBxUTw-10" target="HTXJHpEzkk7YD3VBxUTw-13">
          <mxGeometry relative="1" as="geometry" />
        </mxCell>
        <mxCell id="HTXJHpEzkk7YD3VBxUTw-17" style="edgeStyle=orthogonalEdgeStyle;rounded=0;orthogonalLoop=1;jettySize=auto;html=1;entryX=0.5;entryY=0;entryDx=0;entryDy=0;" edge="1" parent="HTXJHpEzkk7YD3VBxUTw-30" source="HTXJHpEzkk7YD3VBxUTw-12" target="HTXJHpEzkk7YD3VBxUTw-10">
          <mxGeometry relative="1" as="geometry" />
        </mxCell>
        <mxCell id="HTXJHpEzkk7YD3VBxUTw-19" style="edgeStyle=orthogonalEdgeStyle;rounded=0;orthogonalLoop=1;jettySize=auto;html=1;entryX=0.5;entryY=0;entryDx=0;entryDy=0;" edge="1" parent="HTXJHpEzkk7YD3VBxUTw-30" source="HTXJHpEzkk7YD3VBxUTw-13" target="HTXJHpEzkk7YD3VBxUTw-11">
          <mxGeometry relative="1" as="geometry" />
        </mxCell>
        <mxCell id="HTXJHpEzkk7YD3VBxUTw-27" value="" style="edgeStyle=orthogonalEdgeStyle;rounded=0;orthogonalLoop=1;jettySize=auto;html=1;" edge="1" parent="HTXJHpEzkk7YD3VBxUTw-30" source="HTXJHpEzkk7YD3VBxUTw-26" target="HTXJHpEzkk7YD3VBxUTw-3">
          <mxGeometry relative="1" as="geometry" />
        </mxCell>
        <mxCell id="HTXJHpEzkk7YD3VBxUTw-3" value="&lt;b&gt;OnPreFrame&lt;/b&gt;" style="rounded=1;whiteSpace=wrap;html=1;labelBackgroundColor=none;" vertex="1" parent="HTXJHpEzkk7YD3VBxUTw-30">
          <mxGeometry x="30" y="120" width="120" height="40" as="geometry" />
        </mxCell>
        <mxCell id="HTXJHpEzkk7YD3VBxUTw-10" value="&lt;b&gt;OnFrame&lt;/b&gt;" style="rounded=1;whiteSpace=wrap;html=1;labelBackgroundColor=none;" vertex="1" parent="HTXJHpEzkk7YD3VBxUTw-30">
          <mxGeometry x="30" y="280" width="120" height="40" as="geometry" />
        </mxCell>
        <mxCell id="HTXJHpEzkk7YD3VBxUTw-11" value="&lt;b&gt;OnPostFrame&lt;/b&gt;" style="rounded=1;whiteSpace=wrap;html=1;labelBackgroundColor=none;" vertex="1" parent="HTXJHpEzkk7YD3VBxUTw-30">
          <mxGeometry x="30" y="440" width="120" height="40" as="geometry" />
        </mxCell>
        <mxCell id="HTXJHpEzkk7YD3VBxUTw-12" value="ImGui::Begin()" style="rounded=0;whiteSpace=wrap;html=1;fontStyle=1;fillColor=#999999;" vertex="1" parent="HTXJHpEzkk7YD3VBxUTw-30">
          <mxGeometry x="30" y="200" width="120" height="40" as="geometry" />
        </mxCell>
        <mxCell id="HTXJHpEzkk7YD3VBxUTw-13" value="ImGui::End()" style="rounded=0;whiteSpace=wrap;html=1;fontStyle=1;fillColor=#999999;" vertex="1" parent="HTXJHpEzkk7YD3VBxUTw-30">
          <mxGeometry x="30" y="360" width="120" height="40" as="geometry" />
        </mxCell>
        <mxCell id="HTXJHpEzkk7YD3VBxUTw-26" value="IsActive" style="rhombus;whiteSpace=wrap;html=1;fontStyle=1" vertex="1" parent="HTXJHpEzkk7YD3VBxUTw-30">
          <mxGeometry x="35" y="40" width="110" height="40" as="geometry" />
        </mxCell>
        <mxCell id="HTXJHpEzkk7YD3VBxUTw-28" value="true" style="text;strokeColor=none;fillColor=none;align=center;verticalAlign=middle;spacingLeft=4;spacingRight=2;overflow=hidden;points=[[0,0.5],[1,0.5]];portConstraint=eastwest;rotatable=0;whiteSpace=wrap;html=1;spacing=0;spacingTop=0;labelBackgroundColor=#CCCCCC;labelBorderColor=none;" vertex="1" parent="HTXJHpEzkk7YD3VBxUTw-30">
          <mxGeometry x="60" y="80" width="60" height="30" as="geometry" />
        </mxCell>
        <mxCell id="HTXJHpEzkk7YD3VBxUTw-33" value="" style="endArrow=classic;html=1;rounded=0;exitX=1;exitY=0.25;exitDx=0;exitDy=0;entryX=0;entryY=0.5;entryDx=0;entryDy=0;" edge="1" parent="HTXJHpEzkk7YD3VBxUTw-1" source="HTXJHpEzkk7YD3VBxUTw-29" target="HTXJHpEzkk7YD3VBxUTw-26">
          <mxGeometry width="50" height="50" relative="1" as="geometry">
            <mxPoint x="210" y="290" as="sourcePoint" />
            <mxPoint x="260" y="240" as="targetPoint" />
            <Array as="points">
              <mxPoint x="200" y="290" />
              <mxPoint x="200" y="100" />
            </Array>
          </mxGeometry>
        </mxCell>
        <mxCell id="HTXJHpEzkk7YD3VBxUTw-34" value="" style="endArrow=classic;html=1;rounded=0;entryX=1;entryY=0.75;entryDx=0;entryDy=0;exitX=0;exitY=0.5;exitDx=0;exitDy=0;" edge="1" parent="HTXJHpEzkk7YD3VBxUTw-1" source="HTXJHpEzkk7YD3VBxUTw-11" target="HTXJHpEzkk7YD3VBxUTw-29">
          <mxGeometry width="50" height="50" relative="1" as="geometry">
            <mxPoint x="240" y="500" as="sourcePoint" />
            <mxPoint x="260" y="240" as="targetPoint" />
            <Array as="points">
              <mxPoint x="200" y="500" />
              <mxPoint x="200" y="310" />
            </Array>
          </mxGeometry>
        </mxCell>
      </root>
    </mxGraphModel>
  </diagram>
</mxfile>
